# xmcd
#
# Track frame offsets: 
#        150
#        8830
#        22289
#        35626
#        47918
#        60935
#        85257
#        102089
#        121104
#        135133
#        153615
#        169152
#
# Disc length: 2304 seconds
#
# Revision: 0
# Processed by: cddbd v1.5.2PL0 Copyright (c) Steve Scherf et al.
# Submitted via: ExactAudioCopy v0.99pb4
#
DISCID=9108fe0c
DTITLE=Blues Brothers - Briefcase Full of Blues
DYEAR=1978
DGENRE=R&B
TTITLE0=Opening: I Can't Turn You Loose
TTITLE1=Hey Bartender
TTITLE2=Messin' With The Kid
TTITLE3=(I Got Every Thing I Need) Almost
TTITLE4=Rubber Biscuit
TTITLE5=Shot Gun Blues
TTITLE6=Groove Me
TTITLE7=I Don't Know
TTITLE8=Soul Man
TTITLE9="B" Movie Box Car Blues
TTITLE10=Flip, Flop and Fly
TTITLE11=Closing: I Can't Turn You Loose
EXTD=
EXTT0=
EXTT1=
EXTT2=
EXTT3=
EXTT4=
EXTT5=
EXTT6=
EXTT7=
EXTT8=
EXTT9=
EXTT10=
EXTT11=
PLAYORDER=
